<?xml version="1.0" encoding="UTF-8"?>
<!DOCTYPE svg PUBLIC "-//W3C//DTD SVG 1.1//EN" "http://www.w3.org/Graphics/SVG/1.1/DTD/svg11.dtd">
<svg xmlns="http://www.w3.org/2000/svg" version="1.1" width="750px" height="1000px" style="shape-rendering:geometricPrecision; text-rendering:geometricPrecision; image-rendering:optimizeQuality; fill-rule:evenodd; clip-rule:evenodd" xmlns:xlink="http://www.w3.org/1999/xlink">
<g><path style="opacity:1" fill="#8f1f1d" d="M 749.5,410.5 C 749.5,416.167 749.5,421.833 749.5,427.5C 746.315,444.856 738.815,460.189 727,473.5C 715.254,485.588 702.088,495.755 687.5,504C 677.582,518.123 666.249,531.123 653.5,543C 664,550.833 674.5,558.667 685,566.5C 685.667,570.167 685.667,573.833 685,577.5C 680.265,585.967 675.265,594.3 670,602.5C 648.081,632.678 626.915,663.345 606.5,694.5C 606.167,692.5 605.833,690.5 605.5,688.5C 608.273,671.344 614.106,655.344 623,640.5C 628.186,626.734 633.52,613.068 639,599.5C 639.832,594.837 640.666,590.17 641.5,585.5C 642.567,580.826 640.9,577.826 636.5,576.5C 631.477,572.98 625.81,570.813 619.5,570C 612.452,569.27 605.452,569.603 598.5,571C 538.07,599.845 474.404,615.012 407.5,616.5C 386.158,616.592 364.825,616.259 343.5,615.5C 274.564,610.014 208.231,594.347 144.5,568.5C 140.372,569.881 137.038,572.214 134.5,575.5C 127.952,576.975 125.785,580.975 128,587.5C 140.714,615.229 156.381,641.229 175,665.5C 179.903,673.981 183.737,682.981 186.5,692.5C 186.267,693.932 185.6,694.432 184.5,694C 153.028,661.528 121.195,629.361 89,597.5C 85.61,593.442 82.61,589.109 80,584.5C 79.3333,581.5 79.3333,578.5 80,575.5C 86.6629,567.837 93.6629,560.504 101,553.5C 102.271,552.295 102.937,550.962 103,549.5C 88.1205,541.557 75.1205,531.223 64,518.5C 61.8295,514.824 59.6628,511.157 57.5,507.5C 44.274,500.154 31.6073,491.987 19.5,483C 15.3333,478.167 11.1667,473.333 7,468.5C 4.34351,462.824 1.84351,457.157 -0.5,451.5C -0.5,446.5 -0.5,441.5 -0.5,436.5C 4.11766,422.296 12.451,410.63 24.5,401.5C 28.9104,425.82 40.2437,446.32 58.5,463C 59.448,463.483 60.448,463.649 61.5,463.5C 58.3191,438.439 54.6524,413.439 50.5,388.5C 50.8333,387.833 51.1667,387.167 51.5,386.5C 55.1667,388.333 58.8333,390.167 62.5,392C 111.745,420.725 119.745,458.225 86.5,504.5C 95.0215,514.434 105.355,521.934 117.5,527C 122.584,528.234 126.584,526.734 129.5,522.5C 123.863,513.697 118.029,505.03 112,496.5C 110.156,490.122 112.323,485.955 118.5,484C 127.904,482.489 137.237,480.655 146.5,478.5C 147.083,476.998 147.916,475.665 149,474.5C 149.667,473.167 149.667,471.833 149,470.5C 145.325,462.132 141.659,453.799 138,445.5C 136.557,440.788 137.723,436.955 141.5,434C 152.848,433.832 164.181,433.332 175.5,432.5C 177.565,431.037 178.565,429.037 178.5,426.5C 176.499,416.476 174.499,406.476 172.5,396.5C 173.078,393.619 174.078,390.952 175.5,388.5C 187.552,390.578 199.552,392.745 211.5,395C 212.667,393.833 213.833,392.667 215,391.5C 215.333,379.833 215.667,368.167 216,356.5C 217.761,354.23 219.928,352.564 222.5,351.5C 232.689,355.592 242.689,360.259 252.5,365.5C 254.662,363.98 256.995,362.98 259.5,362.5C 260.425,351.431 261.925,340.431 264,329.5C 267.308,325.673 271.474,324.506 276.5,326C 283.833,331.667 291.167,337.333 298.5,343C 301.507,343.301 304.507,343.135 307.5,342.5C 307.34,340.801 307.506,339.134 308,337.5C 311.651,328.201 315.484,319.034 319.5,310C 322.833,308 326.167,308 329.5,310C 336.905,316.735 343.572,324.068 349.5,332C 352.429,332.777 355.263,332.61 358,331.5C 363.095,322.303 368.428,313.303 374,304.5C 377.409,303.378 380.909,303.211 384.5,304C 390.572,311.982 395.739,320.482 400,329.5C 402.559,332.349 405.726,333.183 409.5,332C 415.833,325 422.167,318 428.5,311C 434.046,307.23 438.879,308.063 443,313.5C 446.279,323.171 449.446,332.837 452.5,342.5C 455.141,343.263 457.808,343.43 460.5,343C 468.167,337.333 475.833,331.667 483.5,326C 488.212,324.557 492.045,325.723 495,329.5C 497.257,339.746 498.924,350.08 500,360.5C 501.96,362.651 504.294,364.317 507,365.5C 514.897,361.468 522.73,357.301 530.5,353C 536.358,350.508 540.858,352.008 544,357.5C 543.425,369.061 543.592,380.561 544.5,392C 546.344,393.182 548.177,394.349 550,395.5C 559.347,393.296 568.68,390.963 578,388.5C 581.844,388.668 584.844,390.335 587,393.5C 585.412,405.589 583.412,417.589 581,429.5C 582.167,430.667 583.333,431.833 584.5,433C 596.263,433.042 607.93,433.708 619.5,435C 621.444,436.722 622.444,438.889 622.5,441.5C 619.569,451.253 615.735,460.586 611,469.5C 610.257,472.783 610.924,475.783 613,478.5C 622.554,481.2 632.387,483.033 642.5,484C 648.368,487.04 649.868,491.54 647,497.5C 641.913,505.341 636.58,513.008 631,520.5C 630.116,522.641 630.616,524.307 632.5,525.5C 641.746,518.758 650.246,511.092 658,502.5C 659.696,498.275 661.529,494.108 663.5,490C 659.549,484.604 655.716,479.104 652,473.5C 638.838,453.115 638.171,432.449 650,411.5C 663.295,393.312 680.462,380.979 701.5,374.5C 699.091,382.712 697.258,391.045 696,399.5C 695.5,415.497 695.333,431.497 695.5,447.5C 698.223,446.648 700.89,445.481 703.5,444C 722.63,428.571 734.13,408.738 738,384.5C 743.941,392.318 747.775,400.985 749.5,410.5 Z"/></g>
<g><path style="opacity:1" fill="#fdfdfc" d="M 467.5,416.5 C 490.777,433.678 496.777,455.678 485.5,482.5C 480.796,488.205 475.463,493.205 469.5,497.5C 450.551,506.565 431.551,506.732 412.5,498C 407.378,494.71 402.711,490.877 398.5,486.5C 387.551,467.936 387.884,449.603 399.5,431.5C 418.853,411.732 441.52,406.732 467.5,416.5 Z"/></g>
<g><path style="opacity:1" fill="#141b1f" d="M 467.5,416.5 C 441.52,406.732 418.853,411.732 399.5,431.5C 402.267,426.898 405.934,423.064 410.5,420C 423.703,411.599 438.037,408.599 453.5,411C 458.612,411.976 463.278,413.809 467.5,416.5 Z"/></g>
<g><path style="opacity:1" fill="#fdfdfc" d="M 303.5,417.5 C 317.929,415.769 331.596,418.102 344.5,424.5C 364.254,441.533 368.921,462.2 358.5,486.5C 357.094,486.973 356.427,487.973 356.5,489.5C 341.45,506.018 322.783,512.518 300.5,509C 293.684,507.565 287.351,505.065 281.5,501.5C 279.761,498.757 277.427,496.757 274.5,495.5C 271.245,490.658 268.245,485.658 265.5,480.5C 262.834,469.502 262.834,458.502 265.5,447.5C 267.341,445.151 268.674,442.485 269.5,439.5C 270.906,439.027 271.573,438.027 271.5,436.5C 274.5,434.167 277.167,431.5 279.5,428.5C 281.404,428.262 282.738,427.262 283.5,425.5C 290.019,422.233 296.686,419.566 303.5,417.5 Z"/></g>
<g><path style="opacity:1" fill="#102121" d="M 303.5,417.5 C 296.686,419.566 290.019,422.233 283.5,425.5C 289.228,420.697 295.895,418.03 303.5,417.5 Z"/></g>
<g><path style="opacity:1" fill="#1f2d30" d="M 344.5,424.5 C 331.596,418.102 317.929,415.769 303.5,417.5C 314.912,414.584 326.245,415.417 337.5,420C 340.239,421.026 342.572,422.526 344.5,424.5 Z"/></g>
<g><path style="opacity:1" fill="#192126" d="M 283.5,425.5 C 282.738,427.262 281.404,428.262 279.5,428.5C 280.262,426.738 281.596,425.738 283.5,425.5 Z"/></g>
<g><path style="opacity:1" fill="#151e22" d="M 467.5,416.5 C 481.63,423.826 489.796,435.492 492,451.5C 492.991,459.646 492.324,467.646 490,475.5C 488.974,478.239 487.474,480.572 485.5,482.5C 496.777,455.678 490.777,433.678 467.5,416.5 Z"/></g>
<g><path style="opacity:1" fill="#081418" d="M 279.5,428.5 C 277.167,431.5 274.5,434.167 271.5,436.5C 273.167,432.833 275.833,430.167 279.5,428.5 Z"/></g>
<g><path style="opacity:1" fill="#142120" d="M 271.5,436.5 C 271.573,438.027 270.906,439.027 269.5,439.5C 269.427,437.973 270.094,436.973 271.5,436.5 Z"/></g>
<g><path style="opacity:1" fill="#18272d" d="M 269.5,439.5 C 268.674,442.485 267.341,445.151 265.5,447.5C 265.794,444.246 267.127,441.579 269.5,439.5 Z"/></g>
<g><path style="opacity:1" fill="#070707" d="M 411.5,445.5 C 425.255,445.757 431.421,452.757 430,466.5C 423.2,480.39 414.2,482.056 403,471.5C 397.955,460.135 400.788,451.469 411.5,445.5 Z"/></g>
<g><path style="opacity:1" fill="#050505" d="M 284.5,449.5 C 301.344,450.842 306.844,459.509 301,475.5C 292.679,484.735 284.346,484.735 276,475.5C 270.959,464.124 273.793,455.457 284.5,449.5 Z"/></g>
<g><path style="opacity:1" fill="#f4f4f4" d="M 420.5,461.5 C 425.262,462.092 426.596,464.592 424.5,469C 418.413,469.205 417.079,466.705 420.5,461.5 Z"/></g>
<g><path style="opacity:1" fill="#e3e3e3" d="M 293.5,465.5 C 297.06,464.891 299.06,466.391 299.5,470C 296.526,476.022 293.859,475.856 291.5,469.5C 291.752,467.927 292.418,466.594 293.5,465.5 Z"/></g>
<g><path style="opacity:1" fill="#213638" d="M 344.5,424.5 C 350.764,427.596 355.598,432.263 359,438.5C 366.396,452.382 367.396,466.716 362,481.5C 361.303,483.584 360.136,485.251 358.5,486.5C 368.921,462.2 364.254,441.533 344.5,424.5 Z"/></g>
<g><path style="opacity:1" fill="#111b24" d="M 265.5,447.5 C 262.834,458.502 262.834,469.502 265.5,480.5C 264.073,478.852 263.24,476.852 263,474.5C 262.333,467.5 262.333,460.5 263,453.5C 263.24,451.148 264.073,449.148 265.5,447.5 Z"/></g>
<g><path style="opacity:1" fill="#172128" d="M 399.5,431.5 C 387.884,449.603 387.551,467.936 398.5,486.5C 387.886,473.228 385.719,458.562 392,442.5C 393.582,438.106 396.082,434.439 399.5,431.5 Z"/></g>
<g><path style="opacity:1" fill="#162428" d="M 265.5,480.5 C 268.245,485.658 271.245,490.658 274.5,495.5C 269.725,491.626 266.725,486.626 265.5,480.5 Z"/></g>
<g><path style="opacity:1" fill="#092221" d="M 358.5,486.5 C 358.573,488.027 357.906,489.027 356.5,489.5C 356.427,487.973 357.094,486.973 358.5,486.5 Z"/></g>
<g><path style="opacity:1" fill="#0f1f25" d="M 485.5,482.5 C 482.107,489.559 476.774,494.559 469.5,497.5C 475.463,493.205 480.796,488.205 485.5,482.5 Z"/></g>
<g><path style="opacity:1" fill="#060606" d="M 410.5,513.5 C 408.072,512.788 405.739,511.788 403.5,510.5C 396.651,516.731 388.484,519.731 379,519.5C 370.743,520.23 363.91,517.563 358.5,511.5C 353.69,512.981 349.69,515.647 346.5,519.5C 348.923,514.421 352.923,511.088 358.5,509.5C 360.816,499.352 367.149,493.519 377.5,492C 385.317,490.764 392.65,492.097 399.5,496C 403.397,499.631 405.23,504.131 405,509.5C 407.167,510.488 409,511.821 410.5,513.5 Z"/></g>
<g><path style="opacity:1" fill="#3c4f54" d="M 274.5,495.5 C 277.427,496.757 279.761,498.757 281.5,501.5C 278.112,500.652 275.779,498.652 274.5,495.5 Z"/></g>
<g><path style="opacity:1" fill="#1e2b2e" d="M 356.5,489.5 C 352.299,496.198 346.633,501.364 339.5,505C 320.612,513.984 301.945,513.651 283.5,504C 282.619,503.292 281.953,502.458 281.5,501.5C 287.351,505.065 293.684,507.565 300.5,509C 322.783,512.518 341.45,506.018 356.5,489.5 Z"/></g>
<g><path style="opacity:1" fill="#121b1e" d="M 398.5,486.5 C 402.711,490.877 407.378,494.71 412.5,498C 431.551,506.732 450.551,506.565 469.5,497.5C 468.251,499.136 466.584,500.303 464.5,501C 446.514,507.57 428.847,506.903 411.5,499C 405.983,495.981 401.65,491.815 398.5,486.5 Z"/></g>
<g><path style="opacity:1" fill="#15221a" d="M 410.5,513.5 C 412.027,513.427 413.027,514.094 413.5,515.5C 411.973,515.573 410.973,514.906 410.5,513.5 Z"/></g>
<g><path style="opacity:1" fill="#1b241e" d="M 413.5,515.5 C 417.167,517.167 419.833,519.833 421.5,523.5C 418.5,521.167 415.833,518.5 413.5,515.5 Z"/></g>
<g><path style="opacity:1" fill="#f4d2a1" d="M 410.5,513.5 C 410.973,514.906 411.973,515.573 413.5,515.5C 415.833,518.5 418.5,521.167 421.5,523.5C 421.66,525.153 422.326,526.486 423.5,527.5C 423.502,538.999 417.836,544.499 406.5,544C 401.211,542.013 395.878,540.013 390.5,538C 388,537.833 385.5,537.667 383,537.5C 372.569,539.809 362.069,541.809 351.5,543.5C 350.055,541.937 348.389,540.604 346.5,539.5C 345.104,536.309 344.104,532.976 343.5,529.5C 344.104,526.024 345.104,522.691 346.5,519.5C 349.69,515.647 353.69,512.981 358.5,511.5C 363.91,517.563 370.743,520.23 379,519.5C 388.484,519.731 396.651,516.731 403.5,510.5C 405.739,511.788 408.072,512.788 410.5,513.5 Z"/></g>
<g><path style="opacity:1" fill="#151817" d="M 421.5,523.5 C 423.104,524.287 423.771,525.62 423.5,527.5C 422.326,526.486 421.66,525.153 421.5,523.5 Z"/></g>
<g><path style="opacity:1" fill="#192c28" d="M 346.5,519.5 C 345.104,522.691 344.104,526.024 343.5,529.5C 344.104,532.976 345.104,536.309 346.5,539.5C 342.326,534.463 341.493,528.797 344,522.5C 344.377,521.058 345.21,520.058 346.5,519.5 Z"/></g>
<g><path style="opacity:1" fill="#283230" d="M 346.5,539.5 C 348.389,540.604 350.055,541.937 351.5,543.5C 348.796,543.33 347.129,541.997 346.5,539.5 Z"/></g>
<g><path style="opacity:1" fill="#181b1c" d="M 423.5,527.5 C 425.531,533.659 423.864,538.825 418.5,543C 414.056,545.586 409.39,546.086 404.5,544.5C 403.668,552.813 403.168,561.147 403,569.5C 397.384,575.731 391.217,576.565 384.5,572C 383.748,571.329 383.414,570.496 383.5,569.5C 389.882,574.999 396.048,574.666 402,568.5C 402.902,560.07 402.402,551.736 400.5,543.5C 394.926,540.273 388.926,538.607 382.5,538.5C 381.646,547.805 381.313,557.139 381.5,566.5C 380.833,566.5 380.167,566.5 379.5,566.5C 376.084,573.374 370.751,575.541 363.5,573C 360.15,569.468 357.984,565.301 357,560.5C 356.501,555.177 356.334,549.844 356.5,544.5C 354.585,544.784 352.919,544.451 351.5,543.5C 362.069,541.809 372.569,539.809 383,537.5C 385.5,537.667 388,537.833 390.5,538C 395.878,540.013 401.211,542.013 406.5,544C 417.836,544.499 423.502,538.999 423.5,527.5 Z"/></g>
<g><path style="opacity:1" fill="#fafafa" d="M 379.5,566.5 C 376.938,569.223 373.938,571.389 370.5,573C 365.14,573.331 361.64,570.831 360,565.5C 357.655,559.357 356.989,553.024 358,546.5C 364.957,542.568 372.457,539.901 380.5,538.5C 379.646,547.805 379.313,557.139 379.5,566.5 Z"/></g>
<g><path style="opacity:1" fill="#faf9f9" d="M 383.5,569.5 C 383.573,567.973 382.906,566.973 381.5,566.5C 381.313,557.139 381.646,547.805 382.5,538.5C 388.926,538.607 394.926,540.273 400.5,543.5C 402.402,551.736 402.902,560.07 402,568.5C 396.048,574.666 389.882,574.999 383.5,569.5 Z"/></g>
<g><path style="opacity:1" fill="#161520" d="M 381.5,566.5 C 382.906,566.973 383.573,567.973 383.5,569.5C 382.094,569.027 381.427,568.027 381.5,566.5 Z"/></g>
<g><path style="opacity:1" fill="#8f1f23" d="M 343.5,615.5 C 356.638,616.945 369.971,617.612 383.5,617.5C 391.674,617.5 399.674,617.166 407.5,616.5C 474.404,615.012 538.07,599.845 598.5,571C 605.452,569.603 612.452,569.27 619.5,570C 625.81,570.813 631.477,572.98 636.5,576.5C 634.6,580.633 632.433,584.633 630,588.5C 613.609,611.893 597.609,635.56 582,659.5C 583.009,652.769 584.675,646.102 587,639.5C 593.574,626.015 599.907,612.348 606,598.5C 609.307,590.59 611.973,582.59 614,574.5C 609.763,578.036 605.263,581.202 600.5,584C 578.461,595.522 555.461,604.522 531.5,611C 457.599,628.366 382.933,632.366 307.5,623C 257.386,618.393 209.719,605.893 164.5,585.5C 169.984,596.469 175.484,607.469 181,618.5C 189.718,630.26 195.385,643.26 198,657.5C 180.713,635.211 163.046,613.211 145,591.5C 140.82,586.511 137.32,581.178 134.5,575.5C 137.038,572.214 140.372,569.881 144.5,568.5C 208.231,594.347 274.564,610.014 343.5,615.5 Z"/></g>
<g><path style="opacity:1" fill="#44aab8" d="M 343.5,615.5 C 364.825,616.259 386.158,616.592 407.5,616.5C 399.674,617.166 391.674,617.5 383.5,617.5C 369.971,617.612 356.638,616.945 343.5,615.5 Z"/></g>
</svg>
